STARTFONT 2.1
FONT -Adobe-ITC Souvenir-Demi-I-Normal--8-80-75-75-P-57-ISO8859-15
SIZE 8 75 75
FONTBOUNDINGBOX 13 10 -2 -2

STARTPROPERTIES 30
FOUNDRY "Adobe"
FAMILY_NAME "ITC Souvenir"
WEIGHT_NAME "Demi"
SLANT "I"
SETWIDTH_NAME "Normal"
ADD_STYLE_NAME ""
PIXEL_SIZE 8
POINT_SIZE 80
RESOLUTION_X 75
RESOLUTION_Y 75
SPACING "P"
AVERAGE_WIDTH 57
CHARSET_REGISTRY "ISO8859"
CHARSET_ENCODING "15"
CAP_HEIGHT 5
X_HEIGHT 3
FACE_NAME "ITC Souvenir Demi Italic"
COPYRIGHT "Copyright (c) 1984, 1987 Adobe Systems Incorporated. All Rights Reserved. Copyright (c) 1988, 1991 Digital Equipment Corporation. All Rights Reserved."
NOTICE "ITC Souvenir is a registered trademark of International Typeface Corporation.  "
_DEC_DEVICE_FONTNAMES "PS=Souvenir-DemiItalic"
_DEC_PRODUCTINFO "DECwindows Fonts V2.2, 07-Nov-1991"
RELATIVE_SETWIDTH 50
RELATIVE_WEIGHT 60
CHARSET_COLLECTIONS "ASCII ISO8859-1 ADOBE-STANDARD"
FULL_NAME "ITC Souvenir Demi Italic"
WEIGHT 10
QUAD_WIDTH 7
DEFAULT_CHAR 32
FONT_DESCENT 2
FONT_ASCENT 9
ENDPROPERTIES

CHARS 191

STARTCHAR space
ENCODING 32
SWIDTH 340 0
DWIDTH 2 0
BBX 1 1 0 0
BITMAP
00
ENDCHAR

STARTCHAR exclam
ENCODING 33
SWIDTH 380 0
DWIDTH 3 0
BBX 3 7 0 -1
BITMAP
20
60
60
40
00
80
80
ENDCHAR

STARTCHAR quotedbl
ENCODING 34
SWIDTH 580 0
DWIDTH 4 0
BBX 3 3 0 2
BITMAP
A0
A0
A0
ENDCHAR

STARTCHAR numbersign
ENCODING 35
SWIDTH 660 0
DWIDTH 6 0
BBX 6 6 0 -1
BITMAP
28
7C
30
F8
50
50
ENDCHAR

STARTCHAR dollar
ENCODING 36
SWIDTH 680 0
DWIDTH 6 0
BBX 5 7 0 -2
BITMAP
10
38
60
30
B0
E0
40
ENDCHAR

STARTCHAR percent
ENCODING 37
SWIDTH 900 0
DWIDTH 7 0
BBX 6 6 0 -1
BITMAP
68
A8
D0
2C
54
58
ENDCHAR

STARTCHAR ampersand
ENCODING 38
SWIDTH 880 0
DWIDTH 8 0
BBX 7 6 0 -1
BITMAP
38
28
72
D4
D8
6C
ENDCHAR

STARTCHAR quoteright
ENCODING 39
SWIDTH 320 0
DWIDTH 3 0
BBX 2 3 0 3
BITMAP
40
40
80
ENDCHAR

STARTCHAR parenleft
ENCODING 40
SWIDTH 360 0
DWIDTH 4 0
BBX 4 7 0 -2
BITMAP
10
60
C0
C0
C0
40
20
ENDCHAR

STARTCHAR parenright
ENCODING 41
SWIDTH 360 0
DWIDTH 4 0
BBX 4 7 -1 -2
BITMAP
60
30
30
30
30
60
80
ENDCHAR

STARTCHAR asterisk
ENCODING 42
SWIDTH 680 0
DWIDTH 5 0
BBX 4 4 0 1
BITMAP
20
F0
60
A0
ENDCHAR

STARTCHAR plus
ENCODING 43
SWIDTH 660 0
DWIDTH 6 0
BBX 5 5 0 -1
BITMAP
20
20
F8
20
20
ENDCHAR

STARTCHAR comma
ENCODING 44
SWIDTH 340 0
DWIDTH 2 0
BBX 2 3 -1 -2
BITMAP
40
40
80
ENDCHAR

STARTCHAR minus
ENCODING 45
SWIDTH 660 0
DWIDTH 6 0
BBX 5 1 0 1
BITMAP
F8
ENDCHAR

STARTCHAR period
ENCODING 46
SWIDTH 340 0
DWIDTH 2 0
BBX 1 2 0 -1
BITMAP
80
80
ENDCHAR

STARTCHAR slash
ENCODING 47
SWIDTH 420 0
DWIDTH 4 0
BBX 3 7 0 -2
BITMAP
20
20
40
40
80
80
80
ENDCHAR

STARTCHAR zero
ENCODING 48
SWIDTH 680 0
DWIDTH 6 0
BBX 5 6 0 -1
BITMAP
30
58
C8
D8
F0
60
ENDCHAR

STARTCHAR one
ENCODING 49
SWIDTH 680 0
DWIDTH 6 0
BBX 4 6 0 -1
BITMAP
70
20
60
60
40
E0
ENDCHAR

STARTCHAR two
ENCODING 50
SWIDTH 680 0
DWIDTH 6 0
BBX 5 6 0 -1
BITMAP
70
18
30
60
D0
F0
ENDCHAR

STARTCHAR three
ENCODING 51
SWIDTH 680 0
DWIDTH 6 0
BBX 5 6 0 -1
BITMAP
70
18
60
30
B0
E0
ENDCHAR

STARTCHAR four
ENCODING 52
SWIDTH 680 0
DWIDTH 6 0
BBX 5 6 0 -1
BITMAP
38
70
D0
F8
20
70
ENDCHAR

STARTCHAR five
ENCODING 53
SWIDTH 680 0
DWIDTH 6 0
BBX 5 6 0 -1
BITMAP
38
60
70
18
B0
E0
ENDCHAR

STARTCHAR six
ENCODING 54
SWIDTH 680 0
DWIDTH 6 0
BBX 5 6 0 -1
BITMAP
38
40
F0
D8
D8
70
ENDCHAR

STARTCHAR seven
ENCODING 55
SWIDTH 680 0
DWIDTH 6 0
BBX 5 6 0 -1
BITMAP
F8
10
30
20
60
60
ENDCHAR

STARTCHAR eight
ENCODING 56
SWIDTH 680 0
DWIDTH 6 0
BBX 5 6 0 -1
BITMAP
30
68
70
F0
90
60
ENDCHAR

STARTCHAR nine
ENCODING 57
SWIDTH 680 0
DWIDTH 6 0
BBX 5 6 0 -1
BITMAP
70
D8
D8
70
20
C0
ENDCHAR

STARTCHAR colon
ENCODING 58
SWIDTH 320 0
DWIDTH 2 0
BBX 2 5 0 -1
BITMAP
40
40
00
80
80
ENDCHAR

STARTCHAR semicolon
ENCODING 59
SWIDTH 340 0
DWIDTH 2 0
BBX 3 6 -1 -2
BITMAP
20
20
00
40
40
80
ENDCHAR

STARTCHAR less
ENCODING 60
SWIDTH 660 0
DWIDTH 6 0
BBX 4 5 0 -1
BITMAP
30
60
C0
60
30
ENDCHAR

STARTCHAR equal
ENCODING 61
SWIDTH 660 0
DWIDTH 6 0
BBX 5 3 0 0
BITMAP
F8
00
F8
ENDCHAR

STARTCHAR greater
ENCODING 62
SWIDTH 660 0
DWIDTH 6 0
BBX 4 5 1 -1
BITMAP
C0
60
30
60
C0
ENDCHAR

STARTCHAR question
ENCODING 63
SWIDTH 520 0
DWIDTH 5 0
BBX 5 7 0 -1
BITMAP
70
D8
10
20
00
40
40
ENDCHAR

STARTCHAR at
ENCODING 64
SWIDTH 860 0
DWIDTH 7 0
BBX 7 7 0 -2
BITMAP
3C
42
9A
AA
BC
40
3C
ENDCHAR

STARTCHAR A
ENCODING 65
SWIDTH 760 0
DWIDTH 6 0
BBX 6 6 -1 -1
BITMAP
18
28
2C
7C
44
CC
ENDCHAR

STARTCHAR B
ENCODING 66
SWIDTH 780 0
DWIDTH 6 0
BBX 6 6 -1 -1
BITMAP
78
2C
78
6C
4C
F8
ENDCHAR

STARTCHAR C
ENCODING 67
SWIDTH 780 0
DWIDTH 6 0
BBX 5 6 0 -1
BITMAP
38
60
C0
C0
C8
70
ENDCHAR

STARTCHAR D
ENCODING 68
SWIDTH 860 0
DWIDTH 7 0
BBX 6 6 0 -1
BITMAP
78
24
64
6C
48
F0
ENDCHAR

STARTCHAR E
ENCODING 69
SWIDTH 700 0
DWIDTH 6 0
BBX 6 6 0 -1
BITMAP
7C
20
78
60
48
F8
ENDCHAR

STARTCHAR F
ENCODING 70
SWIDTH 640 0
DWIDTH 6 0
BBX 6 6 0 -1
BITMAP
7C
20
78
60
40
E0
ENDCHAR

STARTCHAR G
ENCODING 71
SWIDTH 820 0
DWIDTH 6 0
BBX 6 6 0 -1
BITMAP
38
40
C0
DC
D8
70
ENDCHAR

STARTCHAR H
ENCODING 72
SWIDTH 880 0
DWIDTH 8 0
BBX 7 6 0 -1
BITMAP
66
2C
7C
68
48
EC
ENDCHAR

STARTCHAR I
ENCODING 73
SWIDTH 400 0
DWIDTH 3 0
BBX 4 6 -1 -1
BITMAP
70
20
60
60
40
E0
ENDCHAR

STARTCHAR J
ENCODING 74
SWIDTH 600 0
DWIDTH 4 0
BBX 6 6 -1 -1
BITMAP
3C
10
30
30
A0
C0
ENDCHAR

STARTCHAR K
ENCODING 75
SWIDTH 780 0
DWIDTH 8 0
BBX 7 6 0 -1
BITMAP
76
28
78
6C
44
E6
ENDCHAR

STARTCHAR L
ENCODING 76
SWIDTH 660 0
DWIDTH 6 0
BBX 5 6 0 -1
BITMAP
70
20
60
60
48
F8
ENDCHAR

STARTCHAR M
ENCODING 77
SWIDTH 960 0
DWIDTH 10 0
BBX 9 6 0 -1
BITMAP
6380
3700
3F00
5A00
5A00
D700
ENDCHAR

STARTCHAR N
ENCODING 78
SWIDTH 800 0
DWIDTH 7 0
BBX 7 6 0 -1
BITMAP
66
34
7C
58
48
C8
ENDCHAR

STARTCHAR O
ENCODING 79
SWIDTH 860 0
DWIDTH 6 0
BBX 6 6 0 -1
BITMAP
38
4C
CC
C8
D8
60
ENDCHAR

STARTCHAR P
ENCODING 80
SWIDTH 720 0
DWIDTH 6 0
BBX 6 6 0 -1
BITMAP
78
2C
6C
78
40
E0
ENDCHAR

STARTCHAR Q
ENCODING 81
SWIDTH 880 0
DWIDTH 6 0
BBX 6 7 0 -2
BITMAP
38
4C
CC
CC
D8
70
18
ENDCHAR

STARTCHAR R
ENCODING 82
SWIDTH 780 0
DWIDTH 6 0
BBX 6 6 0 -1
BITMAP
78
2C
6C
78
48
EC
ENDCHAR

STARTCHAR S
ENCODING 83
SWIDTH 680 0
DWIDTH 6 0
BBX 5 6 0 -1
BITMAP
38
60
70
30
90
E0
ENDCHAR

STARTCHAR T
ENCODING 84
SWIDTH 660 0
DWIDTH 5 0
BBX 5 6 0 -1
BITMAP
F8
20
60
60
40
E0
ENDCHAR

STARTCHAR U
ENCODING 85
SWIDTH 800 0
DWIDTH 6 0
BBX 6 6 0 -1
BITMAP
EC
44
CC
C8
C8
70
ENDCHAR

STARTCHAR V
ENCODING 86
SWIDTH 720 0
DWIDTH 6 0
BBX 6 6 0 -1
BITMAP
EC
64
68
30
30
20
ENDCHAR

STARTCHAR W
ENCODING 87
SWIDTH 1020 0
DWIDTH 9 0
BBX 9 6 0 -1
BITMAP
DD80
6900
6E00
3600
2400
2400
ENDCHAR

STARTCHAR X
ENCODING 88
SWIDTH 740 0
DWIDTH 7 0
BBX 8 6 -1 -1
BITMAP
67
3C
18
3C
66
E6
ENDCHAR

STARTCHAR Y
ENCODING 89
SWIDTH 740 0
DWIDTH 6 0
BBX 6 6 0 -1
BITMAP
EC
28
30
30
20
70
ENDCHAR

STARTCHAR Z
ENCODING 90
SWIDTH 620 0
DWIDTH 6 0
BBX 6 6 0 -1
BITMAP
7C
18
30
60
C8
F8
ENDCHAR

STARTCHAR bracketleft
ENCODING 91
SWIDTH 340 0
DWIDTH 4 0
BBX 4 7 0 -2
BITMAP
30
60
60
40
C0
80
C0
ENDCHAR

STARTCHAR backslash
ENCODING 92
SWIDTH 660 0
DWIDTH 6 0
BBX 3 7 1 -2
BITMAP
80
80
40
40
20
20
20
ENDCHAR

STARTCHAR bracketright
ENCODING 93
SWIDTH 340 0
DWIDTH 4 0
BBX 4 7 -1 -2
BITMAP
30
10
20
60
60
40
C0
ENDCHAR

STARTCHAR asciicircum
ENCODING 94
SWIDTH 660 0
DWIDTH 6 0
BBX 4 4 0 2
BITMAP
20
60
50
90
ENDCHAR

STARTCHAR underscore
ENCODING 95
SWIDTH 500 0
DWIDTH 4 0
BBX 4 1 -1 -2
BITMAP
F0
ENDCHAR

STARTCHAR quoteleft
ENCODING 96
SWIDTH 320 0
DWIDTH 2 0
BBX 2 3 0 3
BITMAP
40
80
80
ENDCHAR

STARTCHAR a
ENCODING 97
SWIDTH 640 0
DWIDTH 6 0
BBX 5 4 0 -1
BITMAP
78
D0
D0
78
ENDCHAR

STARTCHAR b
ENCODING 98
SWIDTH 640 0
DWIDTH 6 0
BBX 5 7 0 -1
BITMAP
60
20
60
78
58
D0
E0
ENDCHAR

STARTCHAR c
ENCODING 99
SWIDTH 540 0
DWIDTH 5 0
BBX 4 4 0 -1
BITMAP
70
C0
D0
60
ENDCHAR

STARTCHAR d
ENCODING 100
SWIDTH 680 0
DWIDTH 6 0
BBX 6 7 0 -1
BITMAP
0C
0C
08
78
D8
D0
70
ENDCHAR

STARTCHAR e
ENCODING 101
SWIDTH 580 0
DWIDTH 5 0
BBX 4 4 0 -1
BITMAP
70
D0
E0
70
ENDCHAR

STARTCHAR f
ENCODING 102
SWIDTH 420 0
DWIDTH 3 0
BBX 5 8 -1 -2
BITMAP
18
30
20
70
20
60
40
C0
ENDCHAR

STARTCHAR g
ENCODING 103
SWIDTH 600 0
DWIDTH 6 0
BBX 7 6 -1 -2
BITMAP
02
3C
68
38
98
F0
ENDCHAR

STARTCHAR h
ENCODING 104
SWIDTH 680 0
DWIDTH 6 0
BBX 5 7 0 -1
BITMAP
60
20
60
78
D8
D0
90
ENDCHAR

STARTCHAR i
ENCODING 105
SWIDTH 340 0
DWIDTH 3 0
BBX 3 7 0 -1
BITMAP
20
20
00
C0
40
C0
C0
ENDCHAR

STARTCHAR j
ENCODING 106
SWIDTH 340 0
DWIDTH 3 0
BBX 4 8 -2 -2
BITMAP
10
10
00
30
10
10
A0
E0
ENDCHAR

STARTCHAR k
ENCODING 107
SWIDTH 600 0
DWIDTH 5 0
BBX 5 7 0 -1
BITMAP
60
20
40
58
E0
F0
90
ENDCHAR

STARTCHAR l
ENCODING 108
SWIDTH 360 0
DWIDTH 3 0
BBX 3 7 0 -1
BITMAP
60
20
60
60
40
C0
C0
ENDCHAR

STARTCHAR m
ENCODING 109
SWIDTH 980 0
DWIDTH 8 0
BBX 7 4 0 -1
BITMAP
F6
7E
D4
D4
ENDCHAR

STARTCHAR n
ENCODING 110
SWIDTH 680 0
DWIDTH 6 0
BBX 5 4 0 -1
BITMAP
F8
58
D0
D0
ENDCHAR

STARTCHAR o
ENCODING 111
SWIDTH 640 0
DWIDTH 6 0
BBX 5 4 0 -1
BITMAP
70
D8
D0
60
ENDCHAR

STARTCHAR p
ENCODING 112
SWIDTH 660 0
DWIDTH 6 0
BBX 6 5 -1 -2
BITMAP
7C
2C
68
70
E0
ENDCHAR

STARTCHAR q
ENCODING 113
SWIDTH 640 0
DWIDTH 6 0
BBX 5 5 0 -2
BITMAP
78
D8
F0
30
60
ENDCHAR

STARTCHAR r
ENCODING 114
SWIDTH 460 0
DWIDTH 4 0
BBX 5 4 0 -1
BITMAP
58
70
C0
C0
ENDCHAR

STARTCHAR s
ENCODING 115
SWIDTH 520 0
DWIDTH 5 0
BBX 4 4 0 -1
BITMAP
70
60
20
E0
ENDCHAR

STARTCHAR t
ENCODING 116
SWIDTH 420 0
DWIDTH 3 0
BBX 3 6 0 -1
BITMAP
40
40
E0
C0
80
C0
ENDCHAR

STARTCHAR u
ENCODING 117
SWIDTH 680 0
DWIDTH 6 0
BBX 5 4 0 -1
BITMAP
D8
D8
B0
68
ENDCHAR

STARTCHAR v
ENCODING 118
SWIDTH 580 0
DWIDTH 5 0
BBX 4 4 0 -1
BITMAP
D0
D0
60
60
ENDCHAR

STARTCHAR w
ENCODING 119
SWIDTH 840 0
DWIDTH 7 0
BBX 6 4 0 -1
BITMAP
D4
D4
B4
58
ENDCHAR

STARTCHAR x
ENCODING 120
SWIDTH 580 0
DWIDTH 6 0
BBX 6 4 -1 -1
BITMAP
6C
30
30
D8
ENDCHAR

STARTCHAR y
ENCODING 121
SWIDTH 560 0
DWIDTH 5 0
BBX 4 5 0 -2
BITMAP
D0
D0
60
60
C0
ENDCHAR

STARTCHAR z
ENCODING 122
SWIDTH 500 0
DWIDTH 4 0
BBX 5 4 -1 -1
BITMAP
78
30
60
F0
ENDCHAR

STARTCHAR braceleft
ENCODING 123
SWIDTH 340 0
DWIDTH 5 0
BBX 4 7 0 -2
BITMAP
10
20
E0
40
40
60
20
ENDCHAR

STARTCHAR bar
ENCODING 124
SWIDTH 660 0
DWIDTH 5 0
BBX 1 6 2 -1
BITMAP
80
80
80
80
80
80
ENDCHAR

STARTCHAR braceright
ENCODING 125
SWIDTH 340 0
DWIDTH 5 0
BBX 4 7 0 -2
BITMAP
40
20
20
70
40
C0
80
ENDCHAR

STARTCHAR asciitilde
ENCODING 126
SWIDTH 660 0
DWIDTH 6 0
BBX 6 2 0 1
BITMAP
74
B8
ENDCHAR

STARTCHAR space
ENCODING 160
SWIDTH 340 0
DWIDTH 2 0
BBX 1 1 0 0
BITMAP
00
ENDCHAR

STARTCHAR exclamdown
ENCODING 161
SWIDTH 380 0
DWIDTH 4 0
BBX 2 7 1 -2
BITMAP
40
40
00
40
C0
80
80
ENDCHAR

STARTCHAR cent
ENCODING 162
SWIDTH 660 0
DWIDTH 6 0
BBX 5 6 0 -1
BITMAP
10
78
C8
C0
78
20
ENDCHAR

STARTCHAR sterling
ENCODING 163
SWIDTH 660 0
DWIDTH 6 0
BBX 5 6 0 -1
BITMAP
38
60
F0
60
48
F0
ENDCHAR

STARTCHAR EuroSign
ENCODING 164
SWIDTH 500 0
DWIDTH 4 0
BBX 6 6 -1 0
BITMAP
1C
24
F0
E0
40
70
ENDCHAR

STARTCHAR yen
ENCODING 165
SWIDTH 680 0
DWIDTH 6 0
BBX 6 6 0 -1
BITMAP
CC
D8
60
F8
60
F0
ENDCHAR

STARTCHAR Scaron
ENCODING 166
SWIDTH 680 0
DWIDTH 6 0
BBX 5 9 0 -1
BITMAP
38
10
00
38
60
70
30
90
E0
ENDCHAR

STARTCHAR section
ENCODING 167
SWIDTH 680 0
DWIDTH 6 0
BBX 5 7 0 -2
BITMAP
38
60
D0
48
28
B0
E0
ENDCHAR

STARTCHAR scaron
ENCODING 168
SWIDTH 520 0
DWIDTH 5 0
BBX 4 7 0 -1
BITMAP
70
20
00
70
60
20
E0
ENDCHAR

STARTCHAR copyright
ENCODING 169
SWIDTH 840 0
DWIDTH 7 0
BBX 6 7 0 -1
BITMAP
30
48
B4
A4
B4
48
30
ENDCHAR

STARTCHAR ordfeminine
ENCODING 170
SWIDTH 440 0
DWIDTH 5 0
BBX 4 5 0 1
BITMAP
60
A0
F0
00
E0
ENDCHAR

STARTCHAR guillemotleft
ENCODING 171
SWIDTH 460 0
DWIDTH 6 0
BBX 4 3 0 0
BITMAP
50
A0
50
ENDCHAR

STARTCHAR logicalnot
ENCODING 172
SWIDTH 660 0
DWIDTH 6 0
BBX 5 3 0 0
BITMAP
F8
08
08
ENDCHAR

STARTCHAR hyphen
ENCODING 173
SWIDTH 300 0
DWIDTH 3 0
BBX 3 1 0 2
BITMAP
E0
ENDCHAR

STARTCHAR registered
ENCODING 174
SWIDTH 840 0
DWIDTH 7 0
BBX 6 7 0 -1
BITMAP
30
48
B4
B4
AC
48
30
ENDCHAR

STARTCHAR macron
ENCODING 175
SWIDTH 480 0
DWIDTH 4 0
BBX 3 1 0 4
BITMAP
E0
ENDCHAR

STARTCHAR degree
ENCODING 176
SWIDTH 400 0
DWIDTH 3 0
BBX 3 3 0 2
BITMAP
60
A0
C0
ENDCHAR

STARTCHAR plusminus
ENCODING 177
SWIDTH 660 0
DWIDTH 6 0
BBX 5 5 0 -1
BITMAP
20
20
F8
00
F8
ENDCHAR

STARTCHAR twosuperior
ENCODING 178
SWIDTH 408 0
DWIDTH 3 0
BBX 3 4 0 1
BITMAP
60
A0
40
E0
ENDCHAR

STARTCHAR threesuperior
ENCODING 179
SWIDTH 408 0
DWIDTH 3 0
BBX 3 4 0 1
BITMAP
E0
40
20
C0
ENDCHAR

STARTCHAR Zcaron
ENCODING 180
SWIDTH 620 0
DWIDTH 6 0
BBX 6 9 0 -1
BITMAP
38
10
00
7C
18
30
60
C8
F8
ENDCHAR

STARTCHAR mu
ENCODING 181
SWIDTH 680 0
DWIDTH 6 0
BBX 5 5 0 -2
BITMAP
D8
98
B0
E8
80
ENDCHAR

STARTCHAR paragraph
ENCODING 182
SWIDTH 660 0
DWIDTH 6 0
BBX 6 7 0 -2
BITMAP
7C
A8
A8
68
50
50
50
ENDCHAR

STARTCHAR periodcentered
ENCODING 183
SWIDTH 340 0
DWIDTH 2 0
BBX 1 1 0 2
BITMAP
80
ENDCHAR

STARTCHAR zcaron
ENCODING 184
SWIDTH 500 0
DWIDTH 4 0
BBX 5 7 -1 -1
BITMAP
38
10
00
78
30
60
F0
ENDCHAR

STARTCHAR onesuperior
ENCODING 185
SWIDTH 408 0
DWIDTH 3 0
BBX 3 4 0 1
BITMAP
40
C0
40
E0
ENDCHAR

STARTCHAR ordmasculine
ENCODING 186
SWIDTH 440 0
DWIDTH 4 0
BBX 3 5 0 1
BITMAP
60
A0
C0
00
E0
ENDCHAR

STARTCHAR guillemotright
ENCODING 187
SWIDTH 460 0
DWIDTH 6 0
BBX 4 3 0 0
BITMAP
A0
50
A0
ENDCHAR

STARTCHAR Ligature_OE
ENCODING 188
SWIDTH 1100 0
DWIDTH 11 0
BBX 10 8 0 0
BITMAP
1FC0
6640
6600
C780
CC00
CC00
CC80
7F80
ENDCHAR

STARTCHAR Ligature_oe
ENCODING 189
SWIDTH 1000 0
DWIDTH 12 0
BBX 11 5 0 0
BITMAP
39C0
4E60
CFC0
CC00
73C0
ENDCHAR

STARTCHAR Ydiaeresis
ENCODING 190
SWIDTH 740 0
DWIDTH 6 0
BBX 6 9 0 -1
BITMAP
24
24
00
EC
28
30
30
20
70
ENDCHAR

STARTCHAR questiondown
ENCODING 191
SWIDTH 520 0
DWIDTH 5 0
BBX 5 7 0 -2
BITMAP
10
10
00
20
40
D8
70
ENDCHAR

STARTCHAR Agrave
ENCODING 192
SWIDTH 760 0
DWIDTH 6 0
BBX 6 9 -1 -1
BITMAP
30
18
00
18
28
2C
7C
44
CC
ENDCHAR

STARTCHAR Aacute
ENCODING 193
SWIDTH 760 0
DWIDTH 6 0
BBX 6 9 -1 -1
BITMAP
0C
18
00
18
28
2C
7C
44
CC
ENDCHAR

STARTCHAR Acircumflex
ENCODING 194
SWIDTH 760 0
DWIDTH 6 0
BBX 6 9 -1 -1
BITMAP
08
1C
00
18
28
2C
7C
44
CC
ENDCHAR

STARTCHAR Atilde
ENCODING 195
SWIDTH 760 0
DWIDTH 6 0
BBX 7 9 -1 -1
BITMAP
1A
2C
00
18
28
2C
7C
44
CC
ENDCHAR

STARTCHAR Adieresis
ENCODING 196
SWIDTH 760 0
DWIDTH 6 0
BBX 6 9 -1 -1
BITMAP
24
24
00
18
28
2C
7C
44
CC
ENDCHAR

STARTCHAR Aring
ENCODING 197
SWIDTH 760 0
DWIDTH 6 0
BBX 6 9 -1 -1
BITMAP
10
28
10
18
28
2C
7C
44
CC
ENDCHAR

STARTCHAR AE
ENCODING 198
SWIDTH 1000 0
DWIDTH 9 0
BBX 8 6 0 -1
BITMAP
1F
2C
4E
F8
9A
9E
ENDCHAR

STARTCHAR Ccedilla
ENCODING 199
SWIDTH 780 0
DWIDTH 6 0
BBX 5 7 0 -2
BITMAP
18
60
C0
C0
C8
70
40
ENDCHAR

STARTCHAR Egrave
ENCODING 200
SWIDTH 700 0
DWIDTH 6 0
BBX 6 9 0 -1
BITMAP
30
18
00
7C
20
78
60
48
F8
ENDCHAR

STARTCHAR Eacute
ENCODING 201
SWIDTH 700 0
DWIDTH 6 0
BBX 6 9 0 -1
BITMAP
0C
18
00
7C
20
78
60
48
F8
ENDCHAR

STARTCHAR Ecircumflex
ENCODING 202
SWIDTH 700 0
DWIDTH 6 0
BBX 6 9 0 -1
BITMAP
10
38
00
7C
20
78
60
48
F8
ENDCHAR

STARTCHAR Edieresis
ENCODING 203
SWIDTH 700 0
DWIDTH 6 0
BBX 6 9 0 -1
BITMAP
24
24
00
7C
20
78
60
48
F8
ENDCHAR

STARTCHAR Igrave
ENCODING 204
SWIDTH 400 0
DWIDTH 3 0
BBX 4 9 -1 -1
BITMAP
60
30
00
70
20
60
60
40
E0
ENDCHAR

STARTCHAR Iacute
ENCODING 205
SWIDTH 400 0
DWIDTH 3 0
BBX 5 9 -1 -1
BITMAP
18
30
00
70
20
60
60
40
E0
ENDCHAR

STARTCHAR Icircumflex
ENCODING 206
SWIDTH 400 0
DWIDTH 3 0
BBX 4 9 -1 -1
BITMAP
20
70
00
70
20
60
60
40
E0
ENDCHAR

STARTCHAR Idieresis
ENCODING 207
SWIDTH 400 0
DWIDTH 3 0
BBX 4 9 -1 -1
BITMAP
50
50
00
70
20
60
60
40
E0
ENDCHAR

STARTCHAR Eth
ENCODING 208
SWIDTH 860 0
DWIDTH 7 0
BBX 6 6 0 -1
BITMAP
78
24
74
6C
48
F0
ENDCHAR

STARTCHAR Ntilde
ENCODING 209
SWIDTH 800 0
DWIDTH 7 0
BBX 7 9 0 -1
BITMAP
1A
2C
00
66
34
7C
58
48
C8
ENDCHAR

STARTCHAR Ograve
ENCODING 210
SWIDTH 860 0
DWIDTH 6 0
BBX 6 9 0 -1
BITMAP
30
18
00
38
4C
CC
C8
D8
60
ENDCHAR

STARTCHAR Oacute
ENCODING 211
SWIDTH 860 0
DWIDTH 6 0
BBX 6 9 0 -1
BITMAP
0C
18
00
38
4C
CC
C8
D8
60
ENDCHAR

STARTCHAR Ocircumflex
ENCODING 212
SWIDTH 860 0
DWIDTH 6 0
BBX 6 9 0 -1
BITMAP
10
38
00
38
4C
CC
C8
D8
60
ENDCHAR

STARTCHAR Otilde
ENCODING 213
SWIDTH 860 0
DWIDTH 6 0
BBX 7 9 0 -1
BITMAP
1A
2C
00
38
4C
CC
C8
D8
60
ENDCHAR

STARTCHAR Odieresis
ENCODING 214
SWIDTH 860 0
DWIDTH 6 0
BBX 6 9 0 -1
BITMAP
24
24
00
38
4C
CC
C8
D8
60
ENDCHAR

STARTCHAR multiply
ENCODING 215
SWIDTH 660 0
DWIDTH 6 0
BBX 4 4 0 -1
BITMAP
90
60
60
90
ENDCHAR

STARTCHAR Oslash
ENCODING 216
SWIDTH 860 0
DWIDTH 6 0
BBX 6 6 0 -1
BITMAP
3C
54
D4
EC
D8
E0
ENDCHAR

STARTCHAR Ugrave
ENCODING 217
SWIDTH 800 0
DWIDTH 6 0
BBX 6 9 0 -1
BITMAP
30
18
00
EC
44
CC
C8
C8
70
ENDCHAR

STARTCHAR Uacute
ENCODING 218
SWIDTH 800 0
DWIDTH 6 0
BBX 6 9 0 -1
BITMAP
0C
18
00
EC
44
CC
C8
C8
70
ENDCHAR

STARTCHAR Ucircumflex
ENCODING 219
SWIDTH 800 0
DWIDTH 6 0
BBX 6 9 0 -1
BITMAP
10
38
00
EC
44
CC
C8
C8
70
ENDCHAR

STARTCHAR Udieresis
ENCODING 220
SWIDTH 800 0
DWIDTH 6 0
BBX 6 9 0 -1
BITMAP
24
24
00
EC
44
CC
C8
C8
70
ENDCHAR

STARTCHAR Yacute
ENCODING 221
SWIDTH 740 0
DWIDTH 6 0
BBX 6 9 0 -1
BITMAP
0C
18
00
EC
28
30
30
20
70
ENDCHAR

STARTCHAR Thorn
ENCODING 222
SWIDTH 720 0
DWIDTH 6 0
BBX 6 7 0 -1
BITMAP
60
38
2C
6C
78
40
E0
ENDCHAR

STARTCHAR germandbls
ENCODING 223
SWIDTH 640 0
DWIDTH 6 0
BBX 6 6 -1 -1
BITMAP
38
68
78
4C
CC
D8
ENDCHAR

STARTCHAR agrave
ENCODING 224
SWIDTH 640 0
DWIDTH 6 0
BBX 5 7 0 -1
BITMAP
60
30
00
78
D0
D0
78
ENDCHAR

STARTCHAR aacute
ENCODING 225
SWIDTH 640 0
DWIDTH 6 0
BBX 5 7 0 -1
BITMAP
18
30
00
78
D0
D0
78
ENDCHAR

STARTCHAR acircumflex
ENCODING 226
SWIDTH 640 0
DWIDTH 6 0
BBX 5 7 0 -1
BITMAP
20
70
00
78
D0
D0
78
ENDCHAR

STARTCHAR atilde
ENCODING 227
SWIDTH 640 0
DWIDTH 6 0
BBX 5 7 0 -1
BITMAP
28
70
00
78
D0
D0
78
ENDCHAR

STARTCHAR adieresis
ENCODING 228
SWIDTH 640 0
DWIDTH 6 0
BBX 5 7 0 -1
BITMAP
50
50
00
78
D0
D0
78
ENDCHAR

STARTCHAR aring
ENCODING 229
SWIDTH 640 0
DWIDTH 6 0
BBX 5 7 0 -1
BITMAP
10
28
10
78
D0
D0
78
ENDCHAR

STARTCHAR ae
ENCODING 230
SWIDTH 900 0
DWIDTH 9 0
BBX 7 4 1 -1
BITMAP
EC
7E
B0
DC
ENDCHAR

STARTCHAR ccedilla
ENCODING 231
SWIDTH 540 0
DWIDTH 5 0
BBX 4 5 0 -2
BITMAP
70
C0
D0
60
40
ENDCHAR

STARTCHAR egrave
ENCODING 232
SWIDTH 580 0
DWIDTH 5 0
BBX 4 7 0 -1
BITMAP
60
30
00
70
D0
E0
70
ENDCHAR

STARTCHAR eacute
ENCODING 233
SWIDTH 580 0
DWIDTH 5 0
BBX 4 7 0 -1
BITMAP
30
60
00
70
D0
E0
70
ENDCHAR

STARTCHAR ecircumflex
ENCODING 234
SWIDTH 580 0
DWIDTH 5 0
BBX 4 7 0 -1
BITMAP
20
70
00
70
D0
E0
70
ENDCHAR

STARTCHAR edieresis
ENCODING 235
SWIDTH 580 0
DWIDTH 5 0
BBX 4 7 0 -1
BITMAP
50
50
00
70
D0
E0
70
ENDCHAR

STARTCHAR igrave
ENCODING 236
SWIDTH 340 0
DWIDTH 3 0
BBX 3 7 0 -1
BITMAP
C0
60
00
C0
40
C0
C0
ENDCHAR

STARTCHAR iacute
ENCODING 237
SWIDTH 340 0
DWIDTH 3 0
BBX 3 7 0 -1
BITMAP
60
C0
00
C0
40
C0
C0
ENDCHAR

STARTCHAR icircumflex
ENCODING 238
SWIDTH 340 0
DWIDTH 3 0
BBX 3 7 0 -1
BITMAP
40
E0
00
C0
40
C0
C0
ENDCHAR

STARTCHAR idieresis
ENCODING 239
SWIDTH 340 0
DWIDTH 3 0
BBX 3 7 0 -1
BITMAP
A0
A0
00
C0
40
C0
C0
ENDCHAR

STARTCHAR eth
ENCODING 240
SWIDTH 640 0
DWIDTH 6 0
BBX 5 7 0 -1
BITMAP
D0
60
B0
78
D8
D8
70
ENDCHAR

STARTCHAR ntilde
ENCODING 241
SWIDTH 680 0
DWIDTH 6 0
BBX 5 7 0 -1
BITMAP
28
70
00
F8
58
D0
D0
ENDCHAR

STARTCHAR ograve
ENCODING 242
SWIDTH 640 0
DWIDTH 6 0
BBX 5 7 0 -1
BITMAP
60
30
00
70
D8
D0
60
ENDCHAR

STARTCHAR oacute
ENCODING 243
SWIDTH 640 0
DWIDTH 6 0
BBX 5 7 0 -1
BITMAP
18
30
00
70
D8
D0
60
ENDCHAR

STARTCHAR ocircumflex
ENCODING 244
SWIDTH 640 0
DWIDTH 6 0
BBX 5 7 0 -1
BITMAP
10
38
00
70
D8
D0
60
ENDCHAR

STARTCHAR otilde
ENCODING 245
SWIDTH 640 0
DWIDTH 6 0
BBX 5 7 0 -1
BITMAP
28
70
00
70
D8
D0
60
ENDCHAR

STARTCHAR odieresis
ENCODING 246
SWIDTH 640 0
DWIDTH 6 0
BBX 5 7 0 -1
BITMAP
50
50
00
70
D8
D0
60
ENDCHAR

STARTCHAR divide
ENCODING 247
SWIDTH 660 0
DWIDTH 6 0
BBX 5 5 0 -1
BITMAP
20
00
F8
00
20
ENDCHAR

STARTCHAR oslash
ENCODING 248
SWIDTH 640 0
DWIDTH 6 0
BBX 6 6 -1 -2
BITMAP
04
38
6C
68
70
80
ENDCHAR

STARTCHAR ugrave
ENCODING 249
SWIDTH 680 0
DWIDTH 6 0
BBX 5 7 0 -1
BITMAP
60
30
00
D8
D8
B0
68
ENDCHAR

STARTCHAR uacute
ENCODING 250
SWIDTH 680 0
DWIDTH 6 0
BBX 5 7 0 -1
BITMAP
18
30
00
D8
D8
B0
68
ENDCHAR

STARTCHAR ucircumflex
ENCODING 251
SWIDTH 680 0
DWIDTH 6 0
BBX 5 7 0 -1
BITMAP
20
70
00
D8
D8
B0
68
ENDCHAR

STARTCHAR udieresis
ENCODING 252
SWIDTH 680 0
DWIDTH 6 0
BBX 5 7 0 -1
BITMAP
50
50
00
D8
D8
B0
68
ENDCHAR

STARTCHAR yacute
ENCODING 253
SWIDTH 560 0
DWIDTH 5 0
BBX 5 8 0 -2
BITMAP
18
30
00
D0
D0
60
60
C0
ENDCHAR

STARTCHAR thorn
ENCODING 254
SWIDTH 660 0
DWIDTH 6 0
BBX 6 7 -1 -2
BITMAP
30
10
3C
2C
68
70
C0
ENDCHAR

STARTCHAR ydieresis
ENCODING 255
SWIDTH 560 0
DWIDTH 5 0
BBX 4 8 0 -2
BITMAP
50
50
00
D0
D0
60
60
C0
ENDCHAR
ENDFONT
